<?xml version="1.0" encoding="UTF-8"?>
<svg version="1.1" xmlns="http://www.w3.org/2000/svg" width="512" height="512">
<path d="M0 0 C1.27866943 -0.0112793 2.55733887 -0.02255859 3.87475586 -0.03417969 C5.28955305 -0.02640266 6.704348 -0.01821 8.11914062 -0.00964355 C9.61076542 -0.01506435 11.10238485 -0.02218677 12.59399414 -0.03088379 C16.6436169 -0.04912547 20.69283223 -0.04204633 24.74246216 -0.02936745 C28.97936099 -0.01924407 33.21622481 -0.02863128 37.453125 -0.03491211 C44.56842312 -0.04219046 51.68355521 -0.03259594 58.79882812 -0.0135498 C67.02641862 0.00821938 75.25361265 0.00116814 83.48119354 -0.02085543 C90.54373317 -0.03900413 97.6061534 -0.04157037 104.6687088 -0.03110075 C108.88752237 -0.02486287 113.10614956 -0.02403817 117.32495117 -0.0372467 C121.29119435 -0.04879699 125.25692611 -0.04079505 129.22311401 -0.01766968 C130.6791804 -0.01237811 132.1352898 -0.01390409 133.59133911 -0.02272034 C135.57780425 -0.03363977 137.56436338 -0.01752243 139.55078125 0 C141.21880798 0.00226215 141.21880798 0.00226215 142.92053223 0.00457001 C146.46024532 0.62868717 147.64437339 1.65411965 149.77539062 4.50793457 C150.14946386 7.36196957 150.28263461 9.8236022 150.22949219 12.67297363 C150.23007629 13.49285767 150.2306604 14.3127417 150.23126221 15.1574707 C150.22847892 17.86326668 150.19737611 20.56795642 150.16601562 23.27355957 C150.15855409 25.15113727 150.15286074 27.02872276 150.14886475 28.90631104 C150.13360154 33.84502715 150.09431375 38.78327177 150.05004883 43.72180176 C150.00911097 48.76242698 149.9908569 53.80312848 149.97070312 58.84387207 C149.92782021 68.73209992 149.8595605 78.61997802 149.77539062 88.50793457 C150.91909119 88.49905212 152.06279175 88.49016968 153.2411499 88.48101807 C164.01206645 88.39998066 174.78292126 88.33999239 185.55407333 88.30068588 C191.09184206 88.27979871 196.62936495 88.25146014 202.16699219 88.20617676 C207.50973176 88.16275977 212.85223467 88.13880598 218.19513702 88.1284256 C220.23494442 88.1210268 222.27473867 88.10657889 224.3144455 88.08501434 C227.16857535 88.0560357 230.02172359 88.05197627 232.87597656 88.05383301 C233.7218634 88.0394519 234.56775024 88.0250708 235.43927002 88.01025391 C236.21887085 88.01575256 236.99847168 88.02125122 237.80169678 88.0269165 C238.47644924 88.02322933 239.15120171 88.01954216 239.84640121 88.01574326 C242.83661076 88.77871021 243.95971497 90.03456903 245.77539062 92.50793457 C246.16018724 95.09047831 246.30003059 97.24393183 246.25640869 99.82244873 C246.25982639 100.56090585 246.26324409 101.29936298 246.26676536 102.06019759 C246.27335626 104.535684 246.25134935 107.01008707 246.22949219 109.48547363 C246.22836397 111.25943984 246.22899707 113.03340792 246.23126221 114.80737305 C246.23241127 119.62532756 246.20887079 124.44288487 246.18096638 129.26074696 C246.15598482 134.29492499 246.15361329 139.32911183 246.14886475 144.36334229 C246.13642543 153.89727543 246.10359084 163.43102541 246.06346679 172.96487784 C246.01877886 183.81842628 245.99676953 194.6719834 245.97668505 205.52560091 C245.93485908 227.85315051 245.86368399 250.18052456 245.77539062 272.50793457 C240.49539063 272.50793457 235.21539062 272.50793457 229.77539062 272.50793457 C229.77539062 217.06793457 229.77539062 161.62793457 229.77539062 104.50793457 C203.37539063 104.50793457 176.97539062 104.50793457 149.77539062 104.50793457 C149.77539062 138.82793457 149.77539062 173.14793457 149.77539062 208.50793457 C144.49539063 208.50793457 139.21539062 208.50793457 133.77539062 208.50793457 C133.77539062 145.14793457 133.77539062 81.78793457 133.77539062 16.50793457 C91.53539062 16.50793457 49.29539062 16.50793457 5.77539062 16.50793457 C5.77539062 79.86793457 5.77539062 143.22793457 5.77539062 208.50793457 C0.49539062 208.50793457 -4.78460938 208.50793457 -10.22460938 208.50793457 C-10.22460938 174.18793457 -10.22460938 139.86793457 -10.22460938 104.50793457 C-36.62460938 104.50793457 -63.02460938 104.50793457 -90.22460938 104.50793457 C-90.22460938 159.94793457 -90.22460938 215.38793457 -90.22460938 272.50793457 C-95.50460938 272.50793457 -100.78460938 272.50793457 -106.22460938 272.50793457 C-106.31714416 249.1079658 -106.38855645 225.70804098 -106.43185806 202.30792618 C-106.45249678 191.44321724 -106.48064242 180.57862397 -106.52636719 169.71398926 C-106.56619483 160.24606556 -106.59203266 150.77822562 -106.60096335 141.31022048 C-106.606185 136.29541519 -106.61848496 131.28084952 -106.6475296 126.26612091 C-106.67463436 121.54819952 -106.68306439 116.83061698 -106.6770401 112.11262512 C-106.67814255 110.37917491 -106.68612585 108.64571362 -106.70143127 106.91233063 C-106.72128251 104.54861769 -106.71656722 102.18619033 -106.70562744 99.82244873 C-106.72310449 98.78936974 -106.72310449 98.78936974 -106.74093461 97.73542047 C-106.69994957 94.46773372 -106.39730708 92.74318835 -104.44290161 90.08084106 C-102.08040055 88.40568159 -101.09565057 88.0113715 -98.25091553 88.0269165 C-97.4713147 88.02141785 -96.69171387 88.01591919 -95.88848877 88.01025391 C-95.04260193 88.02463501 -94.19671509 88.03901611 -93.32519531 88.05383301 C-92.42728271 88.0532489 -91.52937012 88.05266479 -90.60424805 88.05206299 C-87.63876578 88.05484789 -84.67429086 88.08595923 -81.70898438 88.11730957 C-79.65204416 88.12477051 -77.59509684 88.13046414 -75.53814697 88.13446045 C-70.12598016 88.14972829 -64.71424316 88.18902031 -59.30224609 88.23327637 C-53.7790305 88.27420408 -48.25574542 88.29246614 -42.73242188 88.31262207 C-31.89629559 88.35551321 -21.06048824 88.4237787 -10.22460938 88.50793457 C-10.23349182 87.46445862 -10.24237427 86.42098267 -10.25152588 85.34588623 C-10.33257821 75.51680876 -10.39255866 65.687799 -10.43185806 55.85846329 C-10.45274151 50.80495537 -10.48107309 45.75171702 -10.52636719 40.69836426 C-10.56979777 35.82245989 -10.59374077 30.94681497 -10.60411835 26.07073212 C-10.61151473 24.20955063 -10.62595804 22.34838349 -10.6475296 20.48731232 C-10.67652681 17.88221953 -10.68056697 15.27820159 -10.67871094 12.67297363 C-10.69309204 11.9018927 -10.70747314 11.13081177 -10.72229004 10.33636475 C-10.69694099 7.05268839 -10.57746517 4.98047187 -8.58358383 2.31030655 C-5.5389866 -0.0159148 -3.80970651 0.00516667 0 0 Z " fill="#000000" transform="translate(186.224609375,119.4920654296875)"/>
<path d="M0 0 C46.36758428 -0.99930139 90.32586777 15.98099526 125.15625 46.12890625 C125.75630859 46.64775391 126.35636719 47.16660156 126.97460938 47.70117188 C134.5078931 54.28129872 141.03749163 61.187774 147.15625 69.12890625 C147.93226563 70.06605469 148.70828125 71.00320313 149.5078125 71.96875 C168.27020504 95.10903414 186.15625 130.54959884 186.15625 161.12890625 C180.54625 161.12890625 174.93625 161.12890625 169.15625 161.12890625 C166.9267121 153.32552359 166.9267121 153.32552359 166.04296875 149.52734375 C163.90963025 140.56288682 161.63296214 131.98392792 158.07421875 123.46484375 C157.15625 121.12890625 157.15625 121.12890625 157.15625 119.12890625 C151.2722459 123.90450076 145.43141338 128.72264912 139.65625 133.62890625 C137.49073814 135.46360721 135.32370138 137.29649729 133.15625 139.12890625 C132.15851563 139.97324219 131.16078125 140.81757813 130.1328125 141.6875 C127.50568039 143.87917597 124.85226697 146.02277954 122.15625 148.12890625 C121.55683594 148.60585938 120.95742188 149.0828125 120.33984375 149.57421875 C115.13955608 153.15803146 109.17567096 153.04021301 103.15625 152.12890625 C98.03781026 150.25408067 94.24008859 147.12780422 91.91186523 142.15576172 C89.32132887 135.20693042 90.29689744 128.17978052 91.59375 121.06640625 C91.81514648 119.76799805 91.81514648 119.76799805 92.04101562 118.44335938 C92.40183475 116.33664123 92.77747993 114.23247108 93.15625 112.12890625 C92.12177734 112.57943359 92.12177734 112.57943359 91.06640625 113.0390625 C84.80048174 115.57465609 79.77083634 117.14428802 73.15625 115.12890625 C67.96269376 112.38514069 64.6886923 108.9639245 61.90625 103.81640625 C59.5195803 95.26417316 62.52366836 87.9683291 65.3125 79.87890625 C65.73953727 78.61274058 66.16550483 77.34621367 66.5904541 76.0793457 C67.70432557 72.76807597 68.8325327 69.46187139 69.96392822 66.15655518 C71.11886681 62.77400956 72.25999769 59.38681445 73.40234375 56 C75.64025171 49.37172067 77.8933586 42.74869652 80.15625 36.12890625 C78.73684868 35.66070465 78.73684868 35.66070465 77.28877258 35.18304443 C74.80893619 34.34854439 72.46211689 33.45132848 70.07421875 32.39453125 C41.24014977 19.99921002 7.14702328 13.40757733 -23.84375 21.12890625 C-23.53630859 21.72695068 -23.22886719 22.32499512 -22.91210938 22.94116211 C-19.70099082 29.32891051 -18.47412869 34.65124189 -20.60127258 41.60545349 C-23.03830488 48.16984116 -25.7061354 54.58950283 -28.57421875 60.9765625 C-29.01010818 61.95507675 -29.44599762 62.933591 -29.89509583 63.9417572 C-31.27030851 67.02655206 -32.65073828 70.10897978 -34.03125 73.19140625 C-34.96843339 75.29216854 -35.90528529 77.39307876 -36.84179688 79.49414062 C-38.5451612 83.31215687 -40.24927105 87.12983208 -41.95776367 90.94555664 C-42.29877609 91.70735733 -42.63978851 92.46915802 -42.99113464 93.25404358 C-43.58379135 94.55726892 -44.20349407 95.84839439 -44.84375 97.12890625 C-44.9126972 98.50233456 -44.92842708 99.87892727 -44.90625 101.25390625 C-44.8753125 103.17203125 -44.8753125 103.17203125 -44.84375 105.12890625 C-44.26625 105.40089844 -43.68875 105.67289062 -43.09375 105.953125 C-35.68123688 109.82667786 -29.57065387 115.06374141 -26.84375 123.12890625 C-25.91657365 131.16084093 -27.11443771 137.57423867 -29.953125 145.05078125 C-31.48736558 150.35333203 -31.16114746 155.66261659 -30.84375 161.12890625 C-33.65631281 161.15574937 -36.46862241 161.17566813 -39.28125 161.19140625 C-40.08369141 161.19978516 -40.88613281 161.20816406 -41.71289062 161.21679688 C-43.75670221 161.22542055 -45.80058902 161.18118775 -47.84375 161.12890625 C-50.08855423 158.88410202 -49.14776808 154.30113381 -49.17382812 151.27563477 C-49.09450598 145.6748302 -47.84383799 141.0145383 -45.71875 135.8125 C-44.7201307 132.74977028 -44.59220532 130.33160901 -44.84375 127.12890625 C-47.03400318 124.20856867 -49.92377718 122.33235647 -52.84375 120.19140625 C-59.0017016 115.62444958 -61.8592511 111.37956703 -63.27734375 103.81640625 C-64.30760235 92.6579131 -58.39796949 82.94412765 -53.84375 73.12890625 C-51.31710722 67.64204257 -48.81544621 62.14421081 -46.33032227 56.63842773 C-45.23027725 54.21678239 -44.11094299 51.80471572 -42.99023438 49.39257812 C-42.30256275 47.87927982 -41.61567946 46.36562296 -40.9296875 44.8515625 C-40.60306122 44.1616774 -40.27643494 43.4717923 -39.93991089 42.76100159 C-38.02996169 38.48295677 -37.47173219 35.646258 -38.84375 31.12890625 C-40.38593546 29.53298849 -40.38593546 29.53298849 -42.46875 28.69140625 C-43.12101563 28.36269531 -43.77328125 28.03398437 -44.4453125 27.6953125 C-50.81234276 26.19169786 -56.6080019 29.02458926 -62.28125 31.62890625 C-63.0654834 31.9856543 -63.8497168 32.34240234 -64.65771484 32.70996094 C-86.82509517 42.96990857 -107.31592856 57.04718201 -122.84375 76.12890625 C-121.97363281 76.65677734 -121.97363281 76.65677734 -121.0859375 77.1953125 C-114.45052008 81.38898391 -107.92642333 86.1768808 -105.84375 94.12890625 C-104.31806612 101.40524474 -105.52063594 107.36920449 -107.25 114.48046875 C-108.34041928 121.18080828 -107.06876782 125.40686106 -103.29882812 130.83203125 C-102.83927734 131.46625 -102.37972656 132.10046875 -101.90625 132.75390625 C-97.54937625 138.89173687 -94.55435387 143.40082066 -94.59375 151.19140625 C-94.58601563 152.72474609 -94.58601563 152.72474609 -94.578125 154.2890625 C-94.84375 157.12890625 -94.84375 157.12890625 -96.84375 161.12890625 C-103.11375 161.12890625 -109.38375 161.12890625 -115.84375 161.12890625 C-114.85375 158.15890625 -114.85375 158.15890625 -113.84375 155.12890625 C-112.89295287 152.15565083 -112.36935189 150.20227464 -113.65820312 147.28613281 C-114.89416745 145.2134681 -116.2137079 143.23347484 -117.59375 141.25390625 C-123.34270404 132.82535499 -126.86375563 125.57978358 -125.84375 115.12890625 C-125.40276053 113.10487765 -124.86350544 111.13534013 -124.29296875 109.14453125 C-123.24574263 104.4456732 -123.32705033 99.67900525 -124.84375 95.12890625 C-129.13671201 93.47776701 -132.5082982 92.37360917 -136.84375 94.12890625 C-138.83142664 96.545329 -140.21745463 99.23511508 -141.65625 102.00390625 C-142.08711914 102.81255127 -142.51798828 103.62119629 -142.96191406 104.4543457 C-150.91036958 119.65173399 -156.25901274 134.83471134 -160.19287109 151.52441406 C-160.99809656 154.74652408 -161.93134571 157.93549124 -162.84375 161.12890625 C-168.45375 161.12890625 -174.06375 161.12890625 -179.84375 161.12890625 C-177.0985023 137.91908475 -169.81019064 116.68575038 -158.84375 96.12890625 C-158.52148438 95.51772949 -158.19921875 94.90655273 -157.8671875 94.27685547 C-153.02827977 85.17193914 -147.36805625 77.07346964 -140.84375 69.12890625 C-140.37952637 68.55640137 -139.91530273 67.98389648 -139.43701172 67.39404297 C-109.28690594 30.37817267 -65.30504125 6.55468564 -17.84375 1.12890625 C-11.90049406 0.58520145 -5.96077308 0.27019988 0 0 Z M95.15625 46.12890625 C93.21289164 51.76499054 91.27419475 57.40264975 89.33959961 63.04174805 C88.68231646 64.95558771 88.02381286 66.86900871 87.36401367 68.78198242 C82.29986848 83.31463335 82.29986848 83.31463335 78.15625 98.12890625 C80.91901177 97.60622159 83.4823376 97.02021038 86.15625 96.12890625 C93.09260149 95.40958091 98.8542321 95.39159735 104.6015625 99.6484375 C109.04754866 103.88217809 109.9095705 109.22052435 110.15625 115.12890625 C109.8745615 118.5013718 109.31956387 121.80014175 108.71875 125.12890625 C108.57115234 125.99902344 108.42355469 126.86914062 108.27148438 127.765625 C107.90990013 129.88847443 107.53450584 132.00896394 107.15625 134.12890625 C109.04399978 134.77630038 109.04399978 134.77630038 111.15625 135.12890625 C113.47855492 133.56749274 113.47855492 133.56749274 115.71875 131.25390625 C119.21080425 127.94564433 122.72481946 124.77532388 126.46875 121.75390625 C131.32082864 117.82932909 136.0900985 113.81774643 140.8293457 109.75830078 C143.20910202 107.72966813 145.55009075 105.86634575 148.15625 104.12890625 C146.39084166 90.47807273 131.17791274 76.84454305 122.15625 67.12890625 C121.61742187 66.5359375 121.07859375 65.94296875 120.5234375 65.33203125 C115.15511021 59.66696226 108.86547669 55.02097277 102.67822266 50.29492188 C101.39336586 49.31056576 100.12272198 48.30769892 98.85546875 47.30078125 C97.22586751 45.93966193 97.22586751 45.93966193 95.15625 46.12890625 Z " fill="#000000" transform="translate(252.84375,342.87109375)"/>
<path d="M0 0 C1.14307617 0.12761719 2.28615234 0.25523438 3.46386719 0.38671875 C4.66430664 0.54785156 5.86474609 0.70898438 7.1015625 0.875 C8.29942383 1.02582031 9.49728516 1.17664062 10.73144531 1.33203125 C14.40183554 1.813972 18.06387136 2.3378572 21.7265625 2.875 C22.97824219 3.05289063 24.22992188 3.23078125 25.51953125 3.4140625 C34.69986607 4.74110119 34.69986607 4.74110119 38.1015625 5.875 C37.4415625 11.485 36.7815625 17.095 36.1015625 22.875 C31.8115625 22.545 27.5215625 22.215 23.1015625 21.875 C24.19734619 22.94459961 25.29312988 24.01419922 26.42211914 25.11621094 C30.47307713 29.07686714 34.50762695 33.0538863 38.53735352 37.03613281 C40.28582652 38.75941637 42.03875443 40.47819176 43.79614258 42.19238281 C46.31727922 44.65306907 48.82210069 47.12937117 51.32421875 49.609375 C52.11683609 50.37618591 52.90945343 51.14299683 53.72608948 51.93304443 C54.44691208 52.65348938 55.16773468 53.37393433 55.91040039 54.11621094 C56.87303551 55.06219147 56.87303551 55.06219147 57.8551178 56.02728271 C59.1015625 57.875 59.1015625 57.875 58.92137146 59.96026611 C57.72488012 62.75477389 55.9163632 64.53234594 53.7890625 66.6875 C53.00917969 67.49832031 52.22929688 68.30914062 51.42578125 69.14453125 C49.1015625 70.875 49.1015625 70.875 47.18548584 70.6910553 C44.66178444 69.70278483 43.33951651 68.47423612 41.43457031 66.54858398 C40.73414612 65.8479332 40.03372192 65.14728241 39.31207275 64.42539978 C38.56713562 63.66497879 37.82219849 62.9045578 37.0546875 62.12109375 C36.28348572 61.34564713 35.51228394 60.5702005 34.7177124 59.77125549 C32.2552054 57.29195059 29.80333116 54.80242008 27.3515625 52.3125 C25.68428341 50.6301756 24.01632281 48.94852633 22.34765625 47.26757812 C18.25767453 43.14451224 14.17719886 39.01224482 10.1015625 34.875 C10.4315625 39.165 10.7615625 43.455 11.1015625 47.875 C5.4915625 48.535 -0.1184375 49.195 -5.8984375 49.875 C-7.07928513 42.57208797 -8.24976852 35.26767085 -9.40673828 27.9609375 C-9.81152301 25.42048119 -10.22566434 22.88190526 -10.64453125 20.34375 C-10.92490234 18.56484375 -10.92490234 18.56484375 -11.2109375 16.75 C-11.37207031 15.75742188 -11.53320312 14.76484375 -11.69921875 13.7421875 C-11.94567511 10.19514887 -11.77269542 7.33211122 -10.8984375 3.875 C-7.25567802 0.17484538 -5.11381333 -0.60953996 0 0 Z " fill="#000000" transform="translate(62.8984375,59.125)"/>
<path d="M0 0 C2.1875 2.125 2.1875 2.125 3.1875 4.125 C3.00135175 13.38050598 1.52844402 22.60631653 0.1875 31.75 C-0.07933594 33.62751953 -0.07933594 33.62751953 -0.3515625 35.54296875 C-1.67860119 44.72330357 -1.67860119 44.72330357 -2.8125 48.125 C-8.4225 47.465 -14.0325 46.805 -19.8125 46.125 C-19.4825 41.835 -19.1525 37.545 -18.8125 33.125 C-19.88209961 34.22078369 -20.95169922 35.31656738 -22.05371094 36.44555664 C-26.01436714 40.49651463 -29.9913863 44.53106445 -33.97363281 48.56079102 C-35.69691637 50.30926402 -37.41569176 52.06219193 -39.12988281 53.81958008 C-41.59056907 56.34071672 -44.06687117 58.84553819 -46.546875 61.34765625 C-47.31368591 62.14027359 -48.08049683 62.93289093 -48.87054443 63.74952698 C-49.59098938 64.47034958 -50.31143433 65.19117218 -51.05371094 65.93383789 C-51.99969147 66.89647301 -51.99969147 66.89647301 -52.96478271 67.8785553 C-54.8125 69.125 -54.8125 69.125 -56.89776611 68.94480896 C-59.69227389 67.74831762 -61.46984594 65.9398007 -63.625 63.8125 C-64.43582031 63.03261719 -65.24664062 62.25273438 -66.08203125 61.44921875 C-67.8125 59.125 -67.8125 59.125 -67.6285553 57.20892334 C-66.64028483 54.68522194 -65.41173612 53.36295401 -63.48608398 51.45800781 C-62.7854332 50.75758362 -62.08478241 50.05715942 -61.36289978 49.33551025 C-60.60247879 48.59057312 -59.8420578 47.84563599 -59.05859375 47.078125 C-57.89542381 45.92132233 -57.89542381 45.92132233 -56.70875549 44.7411499 C-54.22945059 42.2786429 -51.73992008 39.82676866 -49.25 37.375 C-47.5676756 35.70772091 -45.88602633 34.03976031 -44.20507812 32.37109375 C-40.08201224 28.28111203 -35.94974482 24.20063636 -31.8125 20.125 C-38.2475 20.62 -38.2475 20.62 -44.8125 21.125 C-45.4725 15.515 -46.1325 9.905 -46.8125 4.125 C-39.49414491 2.94995624 -32.17514058 1.77911649 -24.85546875 0.61230469 C-22.39236638 0.2178605 -19.93026552 -0.18175374 -17.46875 -0.5859375 C-16.3653125 -0.76382813 -15.261875 -0.94171875 -14.125 -1.125 C-12.75794922 -1.34929688 -12.75794922 -1.34929688 -11.36328125 -1.578125 C-3.70428618 -2.46952412 -3.70428618 -2.46952412 0 0 Z " fill="#000000" transform="translate(457.8125,60.875)"/>
<path d="M0 0 C5.15759333 4.2772455 8.93407973 9.98575789 12.9375 15.3125 C13.62779297 16.22451172 14.31808594 17.13652344 15.02929688 18.07617188 C16.38470465 19.86839352 17.73559026 21.6640457 19.08154297 23.46337891 C20.32471402 25.10712378 21.58833085 26.73568161 22.87548828 28.34521484 C23.43349121 29.04984863 23.99149414 29.75448242 24.56640625 30.48046875 C25.06213135 31.09172607 25.55785645 31.7029834 26.06860352 32.33276367 C26.37596436 32.88295166 26.6833252 33.43313965 27 34 C25.68774191 37.93677426 23.8038606 38.8271782 20.4375 41.1875 C19.42558594 41.90292969 18.41367187 42.61835937 17.37109375 43.35546875 C16.58863281 43.89816406 15.80617188 44.44085938 15 45 C11 43 11 43 5 35 C4.67 52.49 4.34 69.98 4 88 C-1.28 88 -6.56 88 -12 88 C-12.495 61.765 -12.495 61.765 -13 35 C-15.64 38.3 -18.28 41.6 -21 45 C-25.15930623 43.33627751 -27.44494912 42.08914549 -30.8125 39.375 C-31.60269531 38.74335937 -32.39289063 38.11171875 -33.20703125 37.4609375 C-34.09455078 36.73777344 -34.09455078 36.73777344 -35 36 C-33.61418757 33.04183144 -32.0046712 30.49596344 -30.05859375 27.875 C-29.47883789 27.09108887 -28.89908203 26.30717773 -28.30175781 25.49951172 C-27.68655273 24.67467285 -27.07134766 23.84983398 -26.4375 23 C-25.81069336 22.1558252 -25.18388672 21.31165039 -24.53808594 20.44189453 C-23.27981117 18.74836139 -22.0202273 17.05580004 -20.75927734 15.36425781 C-19.21368373 13.28716531 -17.67677059 11.20413627 -16.14453125 9.1171875 C-15.34654509 8.03631735 -14.54838423 6.95557615 -13.75 5.875 C-13.06421875 4.94429687 -12.3784375 4.01359375 -11.671875 3.0546875 C-8.68027441 -0.62190575 -4.48843945 -1.08369529 0 0 Z " fill="#000000" transform="translate(260,8)"/>
<path d="M0 0 C1.10794922 -0.01260864 2.21589844 -0.02521729 3.35742188 -0.03820801 C4.54916016 -0.03011108 5.74089844 -0.02201416 6.96875 -0.01367188 C8.19658203 -0.01749878 9.42441406 -0.02132568 10.68945312 -0.02526855 C13.28516459 -0.02799029 15.88090336 -0.02061099 18.4765625 -0.00390625 C22.45374599 0.01749738 26.42912282 -0.0037015 30.40625 -0.02929688 C32.92708733 -0.02665365 35.44792353 -0.02152878 37.96875 -0.01367188 C39.16048828 -0.0217688 40.35222656 -0.02986572 41.58007812 -0.03820801 C43.24200195 -0.01929504 43.24200195 -0.01929504 44.9375 0 C45.91138672 0.00318237 46.88527344 0.00636475 47.88867188 0.00964355 C51.24976406 0.67133472 52.43273127 1.79695373 54.46875 4.51757812 C54.94976807 6.66900635 54.94976807 6.66900635 54.92285156 9.01074219 C54.92254944 9.89135315 54.92224731 10.77196411 54.92193604 11.67926025 C54.90129089 12.6210614 54.88064575 13.56286255 54.859375 14.53320312 C54.85371521 15.50416931 54.84805542 16.4751355 54.84222412 17.4755249 C54.81985311 20.57337982 54.76965473 23.67007346 54.71875 26.76757812 C54.69868597 28.86912391 54.68043503 30.97068784 54.6640625 33.07226562 C54.6199858 38.22114982 54.55095258 43.36916716 54.46875 48.51757812 C49.18875 48.51757812 43.90875 48.51757812 38.46875 48.51757812 C38.46875 37.95757812 38.46875 27.39757812 38.46875 16.51757812 C27.90875 16.51757812 17.34875 16.51757812 6.46875 16.51757812 C6.46875 27.07757813 6.46875 37.63757813 6.46875 48.51757812 C1.18875 48.51757812 -4.09125 48.51757812 -9.53125 48.51757812 C-9.63013089 42.3245917 -9.70272486 36.1320648 -9.75097656 29.93847656 C-9.77109126 27.83162431 -9.79838667 25.72482787 -9.83300781 23.61816406 C-9.88153168 20.58970366 -9.90422016 17.56198134 -9.921875 14.53320312 C-9.94252014 13.59140198 -9.96316528 12.64960083 -9.98443604 11.67926025 C-9.98473816 10.79864929 -9.98504028 9.91803833 -9.98535156 9.01074219 C-9.99423401 8.23796936 -10.00311646 7.46519653 -10.01226807 6.66900635 C-8.80063008 1.24976675 -5.07314974 0.01657755 0 0 Z " fill="#000000" transform="translate(233.53125,279.482421875)"/>
<path d="M0 0 C1.04269043 -0.00574036 1.04269043 -0.00574036 2.10644531 -0.01159668 C3.57228041 -0.0143118 5.03816428 -0.00697835 6.50390625 0.00976562 C8.74328975 0.03118581 10.97946587 0.00995557 13.21875 -0.015625 C14.64584039 -0.01298165 16.07292879 -0.0078565 17.5 0 C19.44132812 0.00676758 19.44132812 0.00676758 21.421875 0.01367188 C24.75 0.53125 24.75 0.53125 27.16992188 2.11132812 C29.34170852 5.43746366 29.26745575 7.8242722 29.28125 11.78125 C29.2850769 12.47637695 29.28890381 13.17150391 29.29284668 13.88769531 C29.2955618 15.35353041 29.28822835 16.81941428 29.27148438 18.28515625 C29.25006419 20.52453975 29.27129443 22.76071587 29.296875 25 C29.29423165 26.42709039 29.2891065 27.85417879 29.28125 29.28125 C29.27673828 30.57546875 29.27222656 31.8696875 29.26757812 33.203125 C28.75 36.53125 28.75 36.53125 27.16992188 38.95117188 C23.84378634 41.12295852 21.4569778 41.04870575 17.5 41.0625 C16.80487305 41.0663269 16.10974609 41.07015381 15.39355469 41.07409668 C13.92771959 41.0768118 12.46183572 41.06947835 10.99609375 41.05273438 C8.75671025 41.03131419 6.52053413 41.05254443 4.28125 41.078125 C2.85415961 41.07548165 1.42707121 41.0703565 0 41.0625 C-1.29421875 41.05798828 -2.5884375 41.05347656 -3.921875 41.04882812 C-7.25 40.53125 -7.25 40.53125 -9.66992188 38.95117188 C-11.84170852 35.62503634 -11.76745575 33.2382278 -11.78125 29.28125 C-11.7850769 28.58612305 -11.78890381 27.89099609 -11.79284668 27.17480469 C-11.7955618 25.70896959 -11.78822835 24.24308572 -11.77148438 22.77734375 C-11.75006419 20.53796025 -11.77129443 18.30178413 -11.796875 16.0625 C-11.79423165 14.63540961 -11.7891065 13.20832121 -11.78125 11.78125 C-11.77673828 10.48703125 -11.77222656 9.1928125 -11.76757812 7.859375 C-11.25 4.53125 -11.25 4.53125 -9.66992188 2.11132812 C-6.34378634 -0.06045852 -3.9569778 0.01379425 0 0 Z M4.75 16.53125 C4.75 19.17125 4.75 21.81125 4.75 24.53125 C7.39 24.53125 10.03 24.53125 12.75 24.53125 C12.75 21.89125 12.75 19.25125 12.75 16.53125 C10.11 16.53125 7.47 16.53125 4.75 16.53125 Z " fill="#000000" transform="translate(275.25,215.46875)"/>
<path d="M0 0 C1.04269043 -0.00574036 1.04269043 -0.00574036 2.10644531 -0.01159668 C3.57228041 -0.0143118 5.03816428 -0.00697835 6.50390625 0.00976562 C8.74328975 0.03118581 10.97946587 0.00995557 13.21875 -0.015625 C14.64584039 -0.01298165 16.07292879 -0.0078565 17.5 0 C19.44132812 0.00676758 19.44132812 0.00676758 21.421875 0.01367188 C24.75 0.53125 24.75 0.53125 27.16992188 2.11132812 C29.34170852 5.43746366 29.26745575 7.8242722 29.28125 11.78125 C29.2850769 12.47637695 29.28890381 13.17150391 29.29284668 13.88769531 C29.2955618 15.35353041 29.28822835 16.81941428 29.27148438 18.28515625 C29.25006419 20.52453975 29.27129443 22.76071587 29.296875 25 C29.29423165 26.42709039 29.2891065 27.85417879 29.28125 29.28125 C29.27673828 30.57546875 29.27222656 31.8696875 29.26757812 33.203125 C28.75 36.53125 28.75 36.53125 27.16992188 38.95117188 C23.84378634 41.12295852 21.4569778 41.04870575 17.5 41.0625 C16.80487305 41.0663269 16.10974609 41.07015381 15.39355469 41.07409668 C13.92771959 41.0768118 12.46183572 41.06947835 10.99609375 41.05273438 C8.75671025 41.03131419 6.52053413 41.05254443 4.28125 41.078125 C2.85415961 41.07548165 1.42707121 41.0703565 0 41.0625 C-1.29421875 41.05798828 -2.5884375 41.05347656 -3.921875 41.04882812 C-7.25 40.53125 -7.25 40.53125 -9.66992188 38.95117188 C-11.84170852 35.62503634 -11.76745575 33.2382278 -11.78125 29.28125 C-11.7850769 28.58612305 -11.78890381 27.89099609 -11.79284668 27.17480469 C-11.7955618 25.70896959 -11.78822835 24.24308572 -11.77148438 22.77734375 C-11.75006419 20.53796025 -11.77129443 18.30178413 -11.796875 16.0625 C-11.79423165 14.63540961 -11.7891065 13.20832121 -11.78125 11.78125 C-11.77673828 10.48703125 -11.77222656 9.1928125 -11.76757812 7.859375 C-11.25 4.53125 -11.25 4.53125 -9.66992188 2.11132812 C-6.34378634 -0.06045852 -3.9569778 0.01379425 0 0 Z M4.75 16.53125 C4.75 19.17125 4.75 21.81125 4.75 24.53125 C7.39 24.53125 10.03 24.53125 12.75 24.53125 C12.75 21.89125 12.75 19.25125 12.75 16.53125 C10.11 16.53125 7.47 16.53125 4.75 16.53125 Z " fill="#000000" transform="translate(219.25,215.46875)"/>
<path d="M0 0 C1.04269043 -0.00574036 1.04269043 -0.00574036 2.10644531 -0.01159668 C3.57228041 -0.0143118 5.03816428 -0.00697835 6.50390625 0.00976562 C8.74328975 0.03118581 10.97946587 0.00995557 13.21875 -0.015625 C14.64584039 -0.01298165 16.07292879 -0.0078565 17.5 0 C19.44132812 0.00676758 19.44132812 0.00676758 21.421875 0.01367188 C24.75 0.53125 24.75 0.53125 27.16992188 2.11132812 C29.34170852 5.43746366 29.26745575 7.8242722 29.28125 11.78125 C29.2850769 12.47637695 29.28890381 13.17150391 29.29284668 13.88769531 C29.2955618 15.35353041 29.28822835 16.81941428 29.27148438 18.28515625 C29.25006419 20.52453975 29.27129443 22.76071587 29.296875 25 C29.29423165 26.42709039 29.2891065 27.85417879 29.28125 29.28125 C29.27673828 30.57546875 29.27222656 31.8696875 29.26757812 33.203125 C28.75 36.53125 28.75 36.53125 27.16992188 38.95117188 C23.84378634 41.12295852 21.4569778 41.04870575 17.5 41.0625 C16.80487305 41.0663269 16.10974609 41.07015381 15.39355469 41.07409668 C13.92771959 41.0768118 12.46183572 41.06947835 10.99609375 41.05273438 C8.75671025 41.03131419 6.52053413 41.05254443 4.28125 41.078125 C2.85415961 41.07548165 1.42707121 41.0703565 0 41.0625 C-1.29421875 41.05798828 -2.5884375 41.05347656 -3.921875 41.04882812 C-7.25 40.53125 -7.25 40.53125 -9.66992188 38.95117188 C-11.84170852 35.62503634 -11.76745575 33.2382278 -11.78125 29.28125 C-11.7850769 28.58612305 -11.78890381 27.89099609 -11.79284668 27.17480469 C-11.7955618 25.70896959 -11.78822835 24.24308572 -11.77148438 22.77734375 C-11.75006419 20.53796025 -11.77129443 18.30178413 -11.796875 16.0625 C-11.79423165 14.63540961 -11.7891065 13.20832121 -11.78125 11.78125 C-11.77673828 10.48703125 -11.77222656 9.1928125 -11.76757812 7.859375 C-11.25 4.53125 -11.25 4.53125 -9.66992188 2.11132812 C-6.34378634 -0.06045852 -3.9569778 0.01379425 0 0 Z M4.75 16.53125 C4.75 19.17125 4.75 21.81125 4.75 24.53125 C7.39 24.53125 10.03 24.53125 12.75 24.53125 C12.75 21.89125 12.75 19.25125 12.75 16.53125 C10.11 16.53125 7.47 16.53125 4.75 16.53125 Z " fill="#000000" transform="translate(275.25,151.46875)"/>
<path d="M0 0 C1.04269043 -0.00574036 1.04269043 -0.00574036 2.10644531 -0.01159668 C3.57228041 -0.0143118 5.03816428 -0.00697835 6.50390625 0.00976562 C8.74328975 0.03118581 10.97946587 0.00995557 13.21875 -0.015625 C14.64584039 -0.01298165 16.07292879 -0.0078565 17.5 0 C19.44132812 0.00676758 19.44132812 0.00676758 21.421875 0.01367188 C24.75 0.53125 24.75 0.53125 27.16992188 2.11132812 C29.34170852 5.43746366 29.26745575 7.8242722 29.28125 11.78125 C29.2850769 12.47637695 29.28890381 13.17150391 29.29284668 13.88769531 C29.2955618 15.35353041 29.28822835 16.81941428 29.27148438 18.28515625 C29.25006419 20.52453975 29.27129443 22.76071587 29.296875 25 C29.29423165 26.42709039 29.2891065 27.85417879 29.28125 29.28125 C29.27673828 30.57546875 29.27222656 31.8696875 29.26757812 33.203125 C28.75 36.53125 28.75 36.53125 27.16992188 38.95117188 C23.84378634 41.12295852 21.4569778 41.04870575 17.5 41.0625 C16.80487305 41.0663269 16.10974609 41.07015381 15.39355469 41.07409668 C13.92771959 41.0768118 12.46183572 41.06947835 10.99609375 41.05273438 C8.75671025 41.03131419 6.52053413 41.05254443 4.28125 41.078125 C2.85415961 41.07548165 1.42707121 41.0703565 0 41.0625 C-1.29421875 41.05798828 -2.5884375 41.05347656 -3.921875 41.04882812 C-7.25 40.53125 -7.25 40.53125 -9.66992188 38.95117188 C-11.84170852 35.62503634 -11.76745575 33.2382278 -11.78125 29.28125 C-11.7850769 28.58612305 -11.78890381 27.89099609 -11.79284668 27.17480469 C-11.7955618 25.70896959 -11.78822835 24.24308572 -11.77148438 22.77734375 C-11.75006419 20.53796025 -11.77129443 18.30178413 -11.796875 16.0625 C-11.79423165 14.63540961 -11.7891065 13.20832121 -11.78125 11.78125 C-11.77673828 10.48703125 -11.77222656 9.1928125 -11.76757812 7.859375 C-11.25 4.53125 -11.25 4.53125 -9.66992188 2.11132812 C-6.34378634 -0.06045852 -3.9569778 0.01379425 0 0 Z M4.75 16.53125 C4.75 19.17125 4.75 21.81125 4.75 24.53125 C7.39 24.53125 10.03 24.53125 12.75 24.53125 C12.75 21.89125 12.75 19.25125 12.75 16.53125 C10.11 16.53125 7.47 16.53125 4.75 16.53125 Z " fill="#000000" transform="translate(219.25,151.46875)"/>
<path d="M0 0 C15.84 0 31.68 0 48 0 C48 5.28 48 10.56 48 16 C32.16 16 16.32 16 0 16 C0 10.72 0 5.44 0 0 Z " fill="#000000" transform="translate(352,328)"/>
<path d="M0 0 C15.84 0 31.68 0 48 0 C48 5.28 48 10.56 48 16 C32.16 16 16.32 16 0 16 C0 10.72 0 5.44 0 0 Z " fill="#000000" transform="translate(112,328)"/>
<path d="M0 0 C15.84 0 31.68 0 48 0 C48 5.28 48 10.56 48 16 C32.16 16 16.32 16 0 16 C0 10.72 0 5.44 0 0 Z " fill="#000000" transform="translate(352,288)"/>
<path d="M0 0 C15.84 0 31.68 0 48 0 C48 5.28 48 10.56 48 16 C32.16 16 16.32 16 0 16 C0 10.72 0 5.44 0 0 Z " fill="#000000" transform="translate(112,288)"/>
<path d="M0 0 C15.84 0 31.68 0 48 0 C48 5.28 48 10.56 48 16 C32.16 16 16.32 16 0 16 C0 10.72 0 5.44 0 0 Z " fill="#000000" transform="translate(352,248)"/>
<path d="M0 0 C15.84 0 31.68 0 48 0 C48 5.28 48 10.56 48 16 C32.16 16 16.32 16 0 16 C0 10.72 0 5.44 0 0 Z " fill="#000000" transform="translate(112,248)"/>
</svg>
