<?xml version="1.0" encoding="UTF-8"?>
<svg version="1.1" xmlns="http://www.w3.org/2000/svg" width="512" height="512">
<path d="M0 0 C0.96594086 0.00054382 1.93188171 0.00108765 2.92709351 0.00164795 C18.82427694 0.04267209 34.1070568 0.96742637 49.6875 4.375 C51.16669922 4.69645996 51.16669922 4.69645996 52.67578125 5.02441406 C93.62144938 14.2412142 130.47407042 33.4675562 161.6875 61.375 C162.26983398 61.89416992 162.85216797 62.41333984 163.45214844 62.94824219 C169.94369421 68.76215853 176.11336927 74.66154145 181.6875 81.375 C182.46996094 82.24640625 183.25242187 83.1178125 184.05859375 84.015625 C221.78095548 126.36319191 241.18192992 183.48848465 241.0625 239.6875 C241.06168427 241.13641129 241.06168427 241.13641129 241.06085205 242.61459351 C241.01982791 258.51177694 240.09507363 273.7945568 236.6875 289.375 C236.36604004 290.85419922 236.36604004 290.85419922 236.03808594 292.36328125 C225.03958589 341.22415776 198.58419619 389.07938546 159.6875 421.375 C158.38039063 422.54869141 158.38039063 422.54869141 157.046875 423.74609375 C114.69930809 461.46845548 57.57401535 480.86942992 1.375 480.75 C0.40905914 480.74945618 -0.55688171 480.74891235 -1.55209351 480.74835205 C-17.44927694 480.70732791 -32.7320568 479.78257363 -48.3125 476.375 C-49.29863281 476.16069336 -50.28476563 475.94638672 -51.30078125 475.72558594 C-100.16165776 464.72708589 -148.01688546 438.27169619 -180.3125 399.375 C-181.09496094 398.50359375 -181.87742188 397.6321875 -182.68359375 396.734375 C-211.63493644 364.23325722 -230.79063537 321.2490696 -237.3125 278.375 C-237.48765137 277.25488525 -237.66280273 276.13477051 -237.84326172 274.98071289 C-239.4472463 263.67054686 -239.71175288 252.47495086 -239.6875 241.0625 C-239.68695618 240.09655914 -239.68641235 239.13061829 -239.68585205 238.13540649 C-239.64482791 222.23822306 -238.72007363 206.9554432 -235.3125 191.375 C-235.09819336 190.38886719 -234.88388672 189.40273437 -234.66308594 188.38671875 C-225.4462858 147.44105062 -206.2199438 110.58842958 -178.3125 79.375 C-177.79333008 78.79266602 -177.27416016 78.21033203 -176.73925781 77.61035156 C-170.92534147 71.11880579 -165.02595855 64.94913073 -158.3125 59.375 C-157.44109375 58.59253906 -156.5696875 57.81007812 -155.671875 57.00390625 C-123.17075722 28.05256356 -80.1865696 8.89686463 -37.3125 2.375 C-36.19238525 2.19984863 -35.07227051 2.02469727 -33.91821289 1.84423828 C-22.60804686 0.2402537 -11.41245086 -0.02425288 0 0 Z M-129.3125 78.375 C-129.88983887 78.8508252 -130.46717773 79.32665039 -131.06201172 79.81689453 C-142.61184971 89.390323 -153.09427046 99.48995823 -162.3125 111.375 C-162.73112305 111.90657715 -163.14974609 112.4381543 -163.58105469 112.98583984 C-176.7713541 129.82816063 -186.60175273 148.46354523 -194.3125 168.375 C-194.57111816 169.04160645 -194.82973633 169.70821289 -195.09619141 170.39501953 C-198.06424708 178.22550321 -200.10335223 186.23208674 -202 194.375 C-202.20270508 195.2405249 -202.40541016 196.1060498 -202.61425781 196.99780273 C-205.78900443 211.2563371 -206.72161975 225.20102834 -206.6875 239.75 C-206.68695618 240.62629059 -206.68641235 241.50258118 -206.68585205 242.40542603 C-206.55437697 288.65257342 -190.94352768 334.58037009 -161.3125 370.375 C-160.59876221 371.2410083 -160.59876221 371.2410083 -159.87060547 372.12451172 C-150.29932354 383.67176003 -140.20392994 394.16873166 -128.3125 403.375 C-127.75965332 403.80425781 -127.20680664 404.23351562 -126.63720703 404.67578125 C-91.20216859 431.99254513 -49.8675405 445.98561297 -5.3125 448.375 C-4.22582031 448.43558594 -3.13914063 448.49617188 -2.01953125 448.55859375 C0.90510774 448.63033814 3.76565888 448.53790217 6.6875 448.375 C7.45368652 448.33391113 8.21987305 448.29282227 9.00927734 448.25048828 C62.1983361 445.15660696 109.47117004 424.30494578 147.6875 387.375 C148.41066406 386.70339844 149.13382812 386.03179687 149.87890625 385.33984375 C156.22038287 379.30583266 161.42844974 372.34366016 166.6875 365.375 C167.33404541 364.52760254 167.33404541 364.52760254 167.99365234 363.66308594 C201.15492074 319.96733683 213.92560757 263.89031773 206.53881836 209.87573242 C203.30945871 188.68378386 196.88464279 168.70744909 187.6875 149.375 C187.32930176 148.62138184 186.97110352 147.86776367 186.60205078 147.09130859 C181.09331052 135.70825951 174.26720566 125.47673492 166.6875 115.375 C165.98753906 114.44042969 165.28757812 113.50585938 164.56640625 112.54296875 C130.97231384 69.3106544 81.91427399 42.10285188 27.9375 34.0625 C-27.93391176 27.89651086 -85.61297805 42.20025122 -129.3125 78.375 Z " fill="#000000" transform="translate(255.3125,15.625)"/>
<path d="M0 0 C4.92502359 2.2866181 7.39629043 5.27474929 10 10 C11.15962116 14.24692423 11.11684518 18.44398399 11.0625 22.8125 C11.05798828 23.50537109 11.05347656 24.19824219 11.04882812 24.91210938 C11.03713156 26.60811068 11.01919924 28.30406703 11 30 C12.5778125 30.0928125 12.5778125 30.0928125 14.1875 30.1875 C28.6552604 32.07904465 40.7550073 40.40725364 50.05859375 51.30859375 C56.26111485 59.90725983 59.47894652 71.00159319 58.84375 81.609375 C57.9272322 86.86172699 56.04141256 90.38852495 52 94 C46.64772586 96.93075982 41.94352605 97.52836752 36.078125 95.8671875 C31.30995911 93.87746414 27.98949762 90.81005122 26 86 C25.24304186 82.74341633 24.60806282 79.47444709 23.9765625 76.19140625 C22.68347393 71.96559279 20.77050007 69.20832067 17.10546875 66.70703125 C16.47253906 66.41183594 15.83960938 66.11664063 15.1875 65.8125 C14.56230469 65.50957031 13.93710937 65.20664063 13.29296875 64.89453125 C6.84964669 62.38086728 1.09423456 61.6120497 -5.75 61.625 C-6.63381348 61.62661133 -7.51762695 61.62822266 -8.42822266 61.62988281 C-15.2316742 61.75737722 -20.93229101 62.76611114 -27 66 C-27.62132812 66.32355469 -28.24265625 66.64710938 -28.8828125 66.98046875 C-32.42213674 69.07499638 -34.21181184 71.35229994 -36 75 C-36.90232444 81.80401403 -37.13190122 89.32138902 -33.43359375 95.3359375 C-25.29857177 104.77876956 -11.00392036 108.36111952 0.40454102 112.1706543 C21.2181676 119.14431513 41.48528848 127.3117464 52.46875 147.73046875 C58.96626191 161.42435287 60.78513556 176.16944733 57 191 C51.57308757 205.71892238 41.8325617 215.42173741 27.87597656 222.18652344 C22.77548479 224.39824111 17.40524295 225.75137245 12 227 C11.96261719 227.99 11.92523438 228.98 11.88671875 230 C11.0952771 247.26523401 11.0952771 247.26523401 4.9375 253.4375 C0.65217826 256.73737855 -3.66808186 257.50064959 -9 257 C-14.38976976 255.40987925 -17.89278917 252.72296046 -21 248 C-22.17426264 245.65147472 -22.11508173 244.26225935 -22.09765625 241.6484375 C-22.09443359 240.79765625 -22.09121094 239.946875 -22.08789062 239.0703125 C-22.07532227 237.73613281 -22.07532227 237.73613281 -22.0625 236.375 C-22.05798828 235.4778125 -22.05347656 234.580625 -22.04882812 233.65625 C-22.03702591 231.43743352 -22.02056155 229.21874982 -22 227 C-23.16402344 226.79697266 -23.16402344 226.79697266 -24.3515625 226.58984375 C-40.25558706 223.42042597 -53.03386203 216.17031203 -62.875 203.1875 C-69.45334488 193.06338058 -71.729828 181.93072548 -70 170 C-67.57252238 165.73942714 -65.25809987 162.49931949 -61 160 C-56.12079109 158.78849575 -52.11458057 158.70277852 -47.25 160 C-43.19631965 162.49457252 -40.29010902 164.77552705 -38 169 C-37.29092692 172.05762148 -36.87290588 175.078945 -36.4765625 178.19140625 C-35.61054989 183.29520188 -33.22807137 186.00040703 -29.3125 189.1875 C-17.60034802 195.59603599 -3.83305641 196.59821886 9 193 C15.74966583 190.43624571 20.67607262 187.64785476 24 181 C24.96698543 169.23513785 24.96698543 169.23513785 20 159 C10.25286622 149.47162982 -6.77630117 145.72212181 -19.375 141.4375 C-31.35512054 137.3346395 -42.41800267 132.50666296 -52 124 C-52.61230469 123.48050781 -53.22460938 122.96101563 -53.85546875 122.42578125 C-64.14840795 113.04171086 -69.57509692 99.58347491 -70.37890625 85.86328125 C-70.87279863 71.19888081 -68.79026627 59.4439005 -59 48 C-48.87554495 37.17367631 -37.03830386 32.53034269 -23 29 C-22.96132812 27.04707031 -22.96132812 27.04707031 -22.921875 25.0546875 C-22.86557299 23.32809244 -22.80822613 21.60153124 -22.75 19.875 C-22.73582031 19.0190625 -22.72164062 18.163125 -22.70703125 17.28125 C-22.44058658 10.35368848 -20.61418639 6.48347707 -15.5 1.625 C-10.33499991 -0.77303575 -5.5997712 -0.75381535 0 0 Z " fill="#000000" transform="translate(262,128)"/>
</svg>
